<svg width="192" height="96" viewBox="0 0 192 96" fill="none" xmlns="http://www.w3.org/2000/svg">
<g filter="url(#filter0_d)">
<rect x="16" y="16" width="160" height="64" rx="9" fill="#F4EEE8"/>
</g>
<path d="M59.3455 44.9625L49.3446 35.8705C48.9773 35.5342 48.4973 35.3476 47.9992 35.3477C47.5011 35.3477 47.0211 35.5343 46.6538 35.8707L36.6547 44.9625C36.4487 45.1501 36.284 45.3786 36.1713 45.6334C36.0586 45.8882 36.0003 46.1637 36 46.4423V57.9542C35.9943 58.4568 36.1726 58.9442 36.5013 59.3244C36.6886 59.5373 36.9193 59.7077 37.1778 59.8242C37.4363 59.9407 37.7167 60.0006 38.0003 59.9999H43.9956C44.2608 59.9999 44.5152 59.8945 44.7027 59.707C44.8903 59.5194 44.9956 59.2651 44.9956 58.9999V52.999C44.9956 52.7337 45.101 52.4794 45.2885 52.2918C45.476 52.1043 45.7304 51.999 45.9956 51.999H49.9956C50.2608 51.999 50.5152 52.1043 50.7027 52.2918C50.8903 52.4794 50.9956 52.7337 50.9956 52.999V58.9999C50.9956 59.2651 51.101 59.5194 51.2885 59.707C51.476 59.8945 51.7304 59.9999 51.9956 59.9999H58.0028C58.3314 60.0042 58.6556 59.9243 58.9445 59.7679C59.2635 59.5957 59.53 59.3405 59.7158 59.0293C59.9016 58.718 59.9998 58.3623 60 57.9999V46.4424C59.9997 46.1638 59.9414 45.8883 59.8287 45.6335C59.716 45.3787 59.5514 45.1502 59.3455 44.9625V44.9625Z" fill="black"/>
<path d="M74.1406 44.9375C75.3385 43.5 76.8438 42.7812 78.6562 42.7812C82.3229 42.7812 84.1823 44.9115 84.2344 49.1719V60H79.7188V49.2969C79.7188 48.3281 79.5104 47.6146 79.0938 47.1562C78.6771 46.6875 77.9844 46.4531 77.0156 46.4531C75.6927 46.4531 74.7344 46.9635 74.1406 47.9844V60H69.625V36H74.1406V44.9375ZM86.9375 51.3906C86.9375 49.7135 87.2604 48.2188 87.9062 46.9062C88.5521 45.5938 89.4792 44.5781 90.6875 43.8594C91.9062 43.1406 93.3177 42.7812 94.9219 42.7812C97.2031 42.7812 99.0625 43.4792 100.5 44.875C101.948 46.2708 102.755 48.1667 102.922 50.5625L102.953 51.7188C102.953 54.3125 102.229 56.3958 100.781 57.9688C99.3333 59.5312 97.3906 60.3125 94.9531 60.3125C92.5156 60.3125 90.5677 59.5312 89.1094 57.9688C87.6615 56.4062 86.9375 54.2812 86.9375 51.5938V51.3906ZM91.4531 51.7188C91.4531 53.3229 91.7552 54.5521 92.3594 55.4062C92.9635 56.25 93.8281 56.6719 94.9531 56.6719C96.0469 56.6719 96.901 56.2552 97.5156 55.4219C98.1302 54.5781 98.4375 53.2344 98.4375 51.3906C98.4375 49.8177 98.1302 48.599 97.5156 47.7344C96.901 46.8698 96.0365 46.4375 94.9219 46.4375C93.8177 46.4375 92.9635 46.8698 92.3594 47.7344C91.7552 48.5885 91.4531 49.9167 91.4531 51.7188ZM109.969 43.0938L110.109 44.9844C111.307 43.5156 112.927 42.7812 114.969 42.7812C117.146 42.7812 118.641 43.6406 119.453 45.3594C120.641 43.6406 122.333 42.7812 124.531 42.7812C126.365 42.7812 127.729 43.3177 128.625 44.3906C129.521 45.4531 129.969 47.0573 129.969 49.2031V60H125.438V49.2188C125.438 48.2604 125.25 47.5625 124.875 47.125C124.5 46.6771 123.839 46.4531 122.891 46.4531C121.536 46.4531 120.599 47.099 120.078 48.3906L120.094 60H115.578V49.2344C115.578 48.2552 115.385 47.5469 115 47.1094C114.615 46.6719 113.958 46.4531 113.031 46.4531C111.75 46.4531 110.823 46.9844 110.25 48.0469V60H105.734V43.0938H109.969ZM141.234 60.3125C138.755 60.3125 136.734 59.5521 135.172 58.0312C133.62 56.5104 132.844 54.4844 132.844 51.9531V51.5156C132.844 49.8177 133.172 48.3021 133.828 46.9688C134.484 45.625 135.411 44.5938 136.609 43.875C137.818 43.1458 139.193 42.7812 140.734 42.7812C143.047 42.7812 144.865 43.5104 146.188 44.9688C147.521 46.4271 148.188 48.4948 148.188 51.1719V53.0156H137.422C137.568 54.1198 138.005 55.0052 138.734 55.6719C139.474 56.3385 140.406 56.6719 141.531 56.6719C143.271 56.6719 144.63 56.0417 145.609 54.7812L147.828 57.2656C147.151 58.224 146.234 58.974 145.078 59.5156C143.922 60.0469 142.641 60.3125 141.234 60.3125ZM140.719 46.4375C139.823 46.4375 139.094 46.7396 138.531 47.3438C137.979 47.9479 137.625 48.8125 137.469 49.9375H143.75V49.5781C143.729 48.5781 143.458 47.8073 142.938 47.2656C142.417 46.7135 141.677 46.4375 140.719 46.4375Z" fill="black"/>
<defs>
<filter id="filter0_d" x="10" y="12" width="172" height="76" filterUnits="userSpaceOnUse" color-interpolation-filters="sRGB">
<feFlood flood-opacity="0" result="BackgroundImageFix"/>
<feColorMatrix in="SourceAlpha" type="matrix" values="0 0 0 0 0 0 0 0 0 0 0 0 0 0 0 0 0 0 127 0"/>
<feOffset dy="2"/>
<feGaussianBlur stdDeviation="3"/>
<feColorMatrix type="matrix" values="0 0 0 0 0 0 0 0 0 0 0 0 0 0 0 0 0 0 0.25 0"/>
<feBlend mode="normal" in2="BackgroundImageFix" result="effect1_dropShadow"/>
<feBlend mode="normal" in="SourceGraphic" in2="effect1_dropShadow" result="shape"/>
</filter>
</defs>
</svg>
