<svg width="164" height="68" viewBox="0 0 164 68" fill="none" xmlns="http://www.w3.org/2000/svg">
<g clip-path="url(#clip0)">
<g filter="url(#filter0_d)">
<rect width="160" height="64" rx="9" fill="#F4EEE8"/>
</g>
<path d="M43.3455 28.9625L33.3446 19.8705C32.9773 19.5342 32.4973 19.3476 31.9992 19.3477C31.5011 19.3477 31.0211 19.5343 30.6538 19.8707L20.6547 28.9625C20.4487 29.1501 20.284 29.3786 20.1713 29.6334C20.0586 29.8882 20.0003 30.1637 20 30.4423V41.9542C19.9943 42.4568 20.1726 42.9442 20.5013 43.3244C20.6886 43.5373 20.9193 43.7077 21.1778 43.8242C21.4363 43.9407 21.7167 44.0006 22.0003 43.9999H27.9956C28.2608 43.9999 28.5152 43.8945 28.7027 43.707C28.8903 43.5194 28.9956 43.2651 28.9956 42.9999V36.999C28.9956 36.7337 29.101 36.4794 29.2885 36.2918C29.476 36.1043 29.7304 35.999 29.9956 35.999H33.9956C34.2608 35.999 34.5152 36.1043 34.7027 36.2918C34.8903 36.4794 34.9956 36.7337 34.9956 36.999V42.9999C34.9956 43.2651 35.101 43.5194 35.2885 43.707C35.476 43.8945 35.7304 43.9999 35.9956 43.9999H42.0028C42.3314 44.0042 42.6556 43.9243 42.9445 43.7679C43.2635 43.5957 43.53 43.3405 43.7158 43.0293C43.9016 42.718 43.9998 42.3623 44 41.9999V30.4424C43.9997 30.1638 43.9414 29.8883 43.8287 29.6335C43.716 29.3787 43.5514 29.1502 43.3455 28.9625Z" fill="black"/>
<path d="M58.1406 28.9375C59.3385 27.5 60.8438 26.7812 62.6562 26.7812C66.3229 26.7812 68.1823 28.9115 68.2344 33.1719V44H63.7188V33.2969C63.7188 32.3281 63.5104 31.6146 63.0938 31.1562C62.6771 30.6875 61.9844 30.4531 61.0156 30.4531C59.6927 30.4531 58.7344 30.9635 58.1406 31.9844V44H53.625V20H58.1406V28.9375ZM70.9375 35.3906C70.9375 33.7135 71.2604 32.2188 71.9062 30.9062C72.5521 29.5938 73.4792 28.5781 74.6875 27.8594C75.9062 27.1406 77.3177 26.7812 78.9219 26.7812C81.2031 26.7812 83.0625 27.4792 84.5 28.875C85.9479 30.2708 86.7552 32.1667 86.9219 34.5625L86.9531 35.7188C86.9531 38.3125 86.2292 40.3958 84.7812 41.9688C83.3333 43.5312 81.3906 44.3125 78.9531 44.3125C76.5156 44.3125 74.5677 43.5312 73.1094 41.9688C71.6615 40.4062 70.9375 38.2812 70.9375 35.5938V35.3906ZM75.4531 35.7188C75.4531 37.3229 75.7552 38.5521 76.3594 39.4062C76.9635 40.25 77.8281 40.6719 78.9531 40.6719C80.0469 40.6719 80.901 40.2552 81.5156 39.4219C82.1302 38.5781 82.4375 37.2344 82.4375 35.3906C82.4375 33.8177 82.1302 32.599 81.5156 31.7344C80.901 30.8698 80.0365 30.4375 78.9219 30.4375C77.8177 30.4375 76.9635 30.8698 76.3594 31.7344C75.7552 32.5885 75.4531 33.9167 75.4531 35.7188ZM93.9688 27.0938L94.1094 28.9844C95.3073 27.5156 96.9271 26.7812 98.9688 26.7812C101.146 26.7812 102.641 27.6406 103.453 29.3594C104.641 27.6406 106.333 26.7812 108.531 26.7812C110.365 26.7812 111.729 27.3177 112.625 28.3906C113.521 29.4531 113.969 31.0573 113.969 33.2031V44H109.438V33.2188C109.438 32.2604 109.25 31.5625 108.875 31.125C108.5 30.6771 107.839 30.4531 106.891 30.4531C105.536 30.4531 104.599 31.099 104.078 32.3906L104.094 44H99.5781V33.2344C99.5781 32.2552 99.3854 31.5469 99 31.1094C98.6146 30.6719 97.9583 30.4531 97.0312 30.4531C95.75 30.4531 94.8229 30.9844 94.25 32.0469V44H89.7344V27.0938H93.9688ZM125.234 44.3125C122.755 44.3125 120.734 43.5521 119.172 42.0312C117.62 40.5104 116.844 38.4844 116.844 35.9531V35.5156C116.844 33.8177 117.172 32.3021 117.828 30.9688C118.484 29.625 119.411 28.5938 120.609 27.875C121.818 27.1458 123.193 26.7812 124.734 26.7812C127.047 26.7812 128.865 27.5104 130.188 28.9688C131.521 30.4271 132.188 32.4948 132.188 35.1719V37.0156H121.422C121.568 38.1198 122.005 39.0052 122.734 39.6719C123.474 40.3385 124.406 40.6719 125.531 40.6719C127.271 40.6719 128.63 40.0417 129.609 38.7812L131.828 41.2656C131.151 42.224 130.234 42.974 129.078 43.5156C127.922 44.0469 126.641 44.3125 125.234 44.3125ZM124.719 30.4375C123.823 30.4375 123.094 30.7396 122.531 31.3438C121.979 31.9479 121.625 32.8125 121.469 33.9375H127.75V33.5781C127.729 32.5781 127.458 31.8073 126.938 31.2656C126.417 30.7135 125.677 30.4375 124.719 30.4375Z" fill="black"/>
</g>
<defs>
<filter id="filter0_d" x="-6" y="-4" width="172" height="76" filterUnits="userSpaceOnUse" color-interpolation-filters="sRGB">
<feFlood flood-opacity="0" result="BackgroundImageFix"/>
<feColorMatrix in="SourceAlpha" type="matrix" values="0 0 0 0 0 0 0 0 0 0 0 0 0 0 0 0 0 0 127 0"/>
<feOffset dy="2"/>
<feGaussianBlur stdDeviation="3"/>
<feColorMatrix type="matrix" values="0 0 0 0 0 0 0 0 0 0 0 0 0 0 0 0 0 0 0.25 0"/>
<feBlend mode="normal" in2="BackgroundImageFix" result="effect1_dropShadow"/>
<feBlend mode="normal" in="SourceGraphic" in2="effect1_dropShadow" result="shape"/>
</filter>
<clipPath id="clip0">
<rect width="164" height="68" fill="white"/>
</clipPath>
</defs>
</svg>
